<?xml version="1.0" encoding="UTF-8"?>
<svg width="19px" height="19px" viewBox="0 0 19 19" version="1.1" xmlns="http://www.w3.org/2000/svg" xmlns:xlink="http://www.w3.org/1999/xlink">
    <!-- Generator: Sketch 50.2 (55047) - http://www.bohemiancoding.com/sketch -->
    <title>Combined Shape</title>
    <desc>Created with Sketch.</desc>
    <defs></defs>
    <g id="Page-1" stroke="none" stroke-width="1" fill="none" fill-rule="evenodd">
        <g id="Home" transform="translate(-494.000000, -2372.000000)" fill="#FAFAFA" fill-rule="nonzero">
            <g id="Group-3" transform="translate(252.000000, 2249.000000)">
                <g id="Group-2" transform="translate(160.000000, 123.000000)">
                    <path d="M82,0 L101,0 L101,19 L82,19 L82,0 Z M86.4473039,6.21535126 L86.4473039,11.8348581 C86.4812174,12.0375747 86.4185479,12.244651 86.2784926,12.3926551 L84.96875,14.0126396 L84.96875,14.226264 L88.682598,14.226264 L88.682598,14.0126396 L87.3728554,12.3926551 C87.2317729,12.244896 87.1652229,12.0391843 87.192402,11.8348581 L87.192402,6.97490447 L90.4522059,14.226264 L90.830576,14.226264 L93.6305147,6.97490447 L93.6305147,12.7546297 C93.6305147,12.9089139 93.6305147,12.9385839 93.5315564,13.0394621 L92.5245098,14.0363757 L92.5245098,14.25 L97.4142157,14.25 L97.4142157,14.0363757 L96.4420956,13.0631981 C96.3562808,12.9964972 96.3137123,12.8868695 96.3314951,12.7783657 L96.3314951,5.62788433 C96.3137123,5.51938048 96.3562808,5.4097528 96.4420956,5.34305188 L97.4375,4.36987434 L97.4375,4.15625 L93.9914216,4.15625 L91.5349265,10.4047619 L88.7408088,4.15625 L85.1259191,4.15625 L85.1259191,4.36987434 L86.2901348,5.7999706 C86.4044266,5.90501461 86.4627954,6.05927683 86.4473039,6.21535126 Z" id="Combined-Shape"></path>
                </g>
            </g>
        </g>
    </g>
</svg>