<?xml version="1.0" encoding="UTF-8"?>
<svg width="19px" height="19px" viewBox="0 0 19 19" version="1.1" xmlns="http://www.w3.org/2000/svg" xmlns:xlink="http://www.w3.org/1999/xlink">
    <!-- Generator: Sketch 50.2 (55047) - http://www.bohemiancoding.com/sketch -->
    <title>Fill 34</title>
    <desc>Created with Sketch.</desc>
    <defs></defs>
    <g id="Page-1" stroke="none" stroke-width="1" fill="none" fill-rule="evenodd">
        <g id="Home" transform="translate(-467.000000, -2372.000000)" fill="#FAFAFA">
            <g id="Group-3" transform="translate(252.000000, 2249.000000)">
                <g id="Group-2" transform="translate(160.000000, 123.000000)">
                    <path d="M64.4994062,0 C59.253625,0 55,4.36073936 55,9.7411965 C55,14.0441011 57.72175,17.6949951 61.4974062,18.9831879 C61.9724062,19.0726795 62.1457812,18.7719389 62.1457812,18.5138133 C62.1457812,18.2824743 62.1374687,17.6700349 62.1327188,16.8573046 C59.4899375,17.4460014 58.9324062,15.5514571 58.9324062,15.5514571 C58.50075,14.4264192 57.8779062,14.1268961 57.8779062,14.1268961 C57.0151875,13.5223709 57.9432187,13.5345466 57.9432187,13.5345466 C58.8961875,13.6033395 59.3979062,14.5384359 59.3979062,14.5384359 C60.2457813,16.0269195 61.6215,15.5971161 62.163,15.3475135 C62.2490938,14.718028 62.4949062,14.2888334 62.76625,14.0453187 C60.6566562,13.7993689 58.439,12.9641135 58.439,9.231642 C58.439,8.16809158 58.8089062,7.29874413 59.4169062,6.61751178 C59.3189375,6.37095315 58.9929687,5.38106592 59.5095313,4.03990875 C59.5095313,4.03990875 60.3075312,3.77813046 62.1220313,5.03831899 C62.88025,4.8221997 63.6925,4.71444445 64.5005938,4.71018294 C65.3075,4.71444445 66.1203437,4.8221997 66.8791563,5.03831899 C68.6924688,3.77813046 69.4886875,4.03990875 69.4886875,4.03990875 C70.0070313,5.38106592 69.6810625,6.37095315 69.5830938,6.61751178 C70.1922812,7.29874413 70.5598125,8.16809158 70.5598125,9.231642 C70.5598125,12.9732453 68.3385938,13.7969337 66.2224687,14.0380132 C66.5632812,14.3387539 66.8672812,14.9329297 66.8672812,15.8418483 C66.8672812,17.1440432 66.8554062,18.1942003 66.8554062,18.5138133 C66.8554062,18.774374 67.0264062,19.0775498 67.5085313,18.9819703 C71.280625,17.6913424 74,14.0428835 74,9.7411965 C74,4.36073936 69.746375,0 64.4994062,0" id="Fill-34"></path>
                </g>
            </g>
        </g>
    </g>
</svg>