<?xml version="1.0" encoding="UTF-8"?>
<svg width="19px" height="19px" viewBox="0 0 19 19" version="1.1" xmlns="http://www.w3.org/2000/svg" xmlns:xlink="http://www.w3.org/1999/xlink">
    <!-- Generator: Sketch 50.2 (55047) - http://www.bohemiancoding.com/sketch -->
    <title>Fill 3</title>
    <desc>Created with Sketch.</desc>
    <defs></defs>
    <g id="Page-1" stroke="none" stroke-width="1" fill="none" fill-rule="evenodd">
        <g id="Home" transform="translate(-412.000000, -2372.000000)" fill="#FAFAFA">
            <g id="Group-3" transform="translate(252.000000, 2249.000000)">
                <g id="Group-2" transform="translate(160.000000, 123.000000)">
                    <path d="M18.2085313,0 L0.7920625,0 C0.35446875,0 0,0.35446875 0,0.79146875 L0,18.2085313 C0,18.6455313 0.35446875,19 0.7920625,19 L10.09375,19 L10.09375,11.875 L7.71875,11.875 L7.71875,8.90625 L10.09375,8.90625 L10.09375,6.53125 C10.09375,4.07728125 11.6475938,2.86959375 13.83675,2.86959375 C14.8853125,2.86959375 15.786625,2.94796875 16.0490625,2.98240625 L16.0490625,5.54740625 L14.5308437,5.548 C13.340375,5.548 13.0625,6.11384375 13.0625,6.94390625 L13.0625,8.90625 L16.03125,8.90625 L15.4375,11.875 L13.0625,11.875 L13.11,19 L18.2085313,19 C18.6455312,19 19,18.6455313 19,18.2085313 L19,0.79146875 C19,0.35446875 18.6455312,0 18.2085313,0" id="Fill-3"></path>
                </g>
            </g>
        </g>
    </g>
</svg>