<?xml version="1.0" encoding="UTF-8"?>
<svg width="19px" height="16px" viewBox="0 0 19 16" version="1.1" xmlns="http://www.w3.org/2000/svg" xmlns:xlink="http://www.w3.org/1999/xlink">
    <!-- Generator: Sketch 50.2 (55047) - http://www.bohemiancoding.com/sketch -->
    <title>Fill 1</title>
    <desc>Created with Sketch.</desc>
    <defs></defs>
    <g id="Page-1" stroke="none" stroke-width="1" fill="none" fill-rule="evenodd">
        <g id="Home" transform="translate(-439.000000, -2374.000000)" fill="#FAFAFA">
            <g id="Group-3" transform="translate(252.000000, 2249.000000)">
                <g id="Group-2" transform="translate(160.000000, 123.000000)">
                    <path d="M46,3.89378966 C45.3011562,4.21495866 44.5494688,4.43214766 43.7609688,4.529975 C44.5660937,4.02976351 45.1841875,3.23853105 45.475125,2.29532782 C44.72225,2.75800808 43.8874375,3.09394347 42.9997812,3.27544703 C42.2884687,2.49036724 41.2755313,2 40.1545313,2 C38.0015937,2 36.2565625,3.80826764 36.2565625,6.03922323 C36.2565625,6.3554701 36.291,6.66371852 36.3575,6.9596616 C33.1174063,6.79107864 30.2454375,5.18277254 28.322875,2.73893482 C27.9874062,3.33574313 27.7950313,4.02976351 27.7950313,4.76992886 C27.7950313,6.17089021 28.4831875,7.40757547 29.5287813,8.1317439 C28.8899062,8.11082484 28.2890312,7.92932128 27.7635625,7.62661027 C27.7629687,7.64383772 27.7629687,7.66044991 27.7629687,7.67767737 C27.7629687,9.63483945 29.106625,11.2671409 30.89025,11.6381465 C30.5630938,11.7304365 30.2187187,11.7796578 29.8630625,11.7796578 C29.6119063,11.7796578 29.367875,11.7544318 29.1297813,11.7076716 C29.6255625,13.3122861 31.0654062,14.4800615 32.77125,14.5126706 C31.4370937,15.5961546 29.7561875,16.2415689 27.9298125,16.2415689 C27.615125,16.2415689 27.3051875,16.2224957 27,16.1855797 C28.7248438,17.3312055 30.773875,18 32.9755,18 C40.145625,18 44.0661562,11.844876 44.0661562,6.50744088 C44.0661562,6.33208998 44.0625937,6.15796962 44.054875,5.98446453 C44.8166563,5.4153432 45.4775,4.70409537 46,3.89378966" id="Fill-1"></path>
                </g>
            </g>
        </g>
    </g>
</svg>