<?xml version="1.0" encoding="UTF-8"?>
<svg width="56px" height="56px" viewBox="0 0 56 56" version="1.1" xmlns="http://www.w3.org/2000/svg" xmlns:xlink="http://www.w3.org/1999/xlink">
    <!-- Generator: Sketch 50.2 (55047) - http://www.bohemiancoding.com/sketch -->
    <title>pinkroom-circle</title>
    <desc>Created with Sketch.</desc>
    <defs>
        <circle id="path-1" cx="28" cy="28" r="28"></circle>
        <path d="M11.7987166,1.72330415 C11.7987166,2.68922803 12.5740798,3.47303748 13.5327795,3.47303748 C14.505684,3.47303748 15.2951858,2.68922803 15.2951858,1.72330415 C15.2951858,0.771399191 14.505684,0.0014770341 13.5327795,0.0014770341 C12.5740798,0.0014770341 11.7987166,0.771399191 11.7987166,1.72330415 Z M25.2701627,0.802267159 L25.2701627,0.942324806 L26.1584351,0.942324806 L26.1584351,11.4128186 L29.1613163,11.4128186 L29.1613163,7.63330244 L31.2902628,11.4128186 L34.659817,11.4128186 L32.4039555,7.40939449 L29.2037984,7.40939449 L29.9087343,6.34553557 L32.6719241,6.34553557 L33.8563094,4.38571576 L31.0366319,4.38571576 L29.1613163,7.2274117 L29.1613163,0.802267159 L25.2701627,0.802267159 Z M0,3.75104664 L0,3.89110429 L1.17024683,3.89110429 L1.17024683,14.2216062 L0,14.2216062 L0,14.3616639 L6.04844363,14.3616639 L6.04844363,14.2216062 L4.45523522,14.2216062 L4.45523522,3.89110429 L5.28701985,3.89110429 C6.88002913,3.89110429 7.45824921,5.06698301 7.45824921,6.7466217 C7.45824921,8.42652366 6.88002913,9.57429871 5.28701985,9.57429871 L4.86405826,9.57429871 L4.86405826,9.71429054 L5.28701985,9.71429054 C8.91040406,9.71429054 11.0110071,8.91633053 11.0110071,6.6627714 C11.0110071,4.40901483 8.91040406,3.75104664 5.28701985,3.75104664 L0,3.75104664 Z M16.2792419,5.60167677 L16.2792419,5.65762085 L17.1673152,6.45564668 L17.1673152,11.2568991 L16.2792419,11.2568991 L16.2792419,11.3969568 L21.058668,11.3969568 L21.058668,11.2568991 L20.1703956,11.2568991 L20.1703956,6.49757183 C20.1703956,5.32175893 20.353732,4.81793313 20.8613258,4.81793313 C21.3687204,4.81793313 21.5381174,5.32175893 21.5381174,6.49757183 L21.5381174,11.3969568 L25.4292711,11.3969568 L25.4292711,11.2568991 L24.5409987,11.2568991 L24.5409987,6.65151677 C24.5409987,5.05566256 23.8221233,4.04801098 22.2993421,4.04801098 C21.3124981,4.04801098 20.3960813,4.41177912 20.1703956,5.3498626 L20.1703956,3.76789568 L16.2792419,5.60167677 Z M11.231117,5.60167677 L11.231117,5.65762085 L12.1193895,6.45564668 L12.1193895,11.2568991 L11.231117,11.2568991 L11.231117,11.3969568 L16.0107423,11.3969568 L16.0107423,11.2568991 L15.1224698,11.2568991 L15.1224698,3.76789568 L11.231117,5.60167677 Z" id="path-3"></path>
        <path d="M0,0.00432482079 L0,0.144351175 L1.17016629,0.144351175 L1.17016629,10.4724792 L0,10.4724792 L0,10.6125056 L5.62509487,10.6125056 L5.62509487,10.4724792 L4.45492858,10.4724792 L4.45492858,5.32243099 L4.87786106,5.32243099 L8.27539208,10.6125056 L12.0957892,10.6125056 L10.0516156,7.49165504 C9.17754183,6.16199689 8.402232,5.11245726 6.01968583,5.04244408 L6.01968583,5.01454409 C8.57141826,4.87451774 10.3195657,4.132865 10.3195657,2.53736735 C10.3195657,0.536135437 8.24724968,0.00432482079 4.62411485,0.00432482079 L0,0.00432482079 Z M4.45492858,0.144351175 L4.68039965,0.144351175 C6.24535601,0.144351175 6.76685326,1.12387763 6.76685326,2.6633779 C6.76685326,4.20287817 6.24535601,5.18240463 4.68039965,5.18240463 L4.45492858,5.18240463 L4.45492858,0.144351175 Z M29.4725262,4.81852036 L29.4725262,4.87451774 L30.3605384,5.67229947 L30.3605384,10.4724792 L29.4725262,10.4724792 L29.4725262,10.6125056 L34.2516234,10.6125056 L34.2516234,10.4724792 L33.3634121,10.4724792 L33.3634121,5.71428105 C33.3634121,4.53866506 33.5465368,4.03495183 34.0542947,4.03495183 C34.5616544,4.03495183 34.7308407,4.53866506 34.7308407,5.71428105 L34.7308407,10.6125056 L38.6219257,10.6125056 L38.6219257,10.4724792 L37.7337144,10.4724792 L37.7337144,5.71428105 C37.7337144,4.53866506 37.9170382,4.03495183 38.424597,4.03495183 C38.9319567,4.03495183 39.1011429,4.53866506 39.1011429,5.71428105 L39.1011429,10.6125056 L42.9922279,10.6125056 L42.9922279,10.4724792 L42.1040166,10.4724792 L42.1040166,5.86812579 C42.1040166,4.27289135 41.3849916,3.2652017 39.8625143,3.2652017 C38.8473967,3.2652017 37.7618568,3.64297016 37.6349505,4.87451774 C37.3953418,3.89492548 36.7045919,3.2652017 35.4921457,3.2652017 C34.5053696,3.2652017 33.5890159,3.62908597 33.3634121,4.56676245 L33.3634121,2.98534639 L29.4725262,4.81852036 Z M20.8418364,7.0298576 C20.8418364,9.0449737 22.2376065,10.7945135 24.8879037,10.7945135 C27.5382009,10.7945135 28.9340373,9.0449737 28.9340373,7.0298576 C28.9340373,5.01454409 27.5382009,3.2652017 24.8879037,3.2652017 C22.2376065,3.2652017 20.8418364,5.01454409 20.8418364,7.0298576 Z M24.1126602,7.23969972 C23.7178038,5.79831002 23.5063375,4.84661775 23.5063375,4.25880975 C23.5063375,3.71298334 23.7319413,3.46102803 24.0843187,3.46102803 C24.662499,3.46102803 25.0289475,4.48273348 25.6632135,6.81981807 C26.05807,8.26140517 26.2695362,9.21309745 26.2695362,9.80083964 C26.2695362,10.3465345 26.043866,10.5984898 25.691555,10.5984898 C25.1135739,10.5984898 24.7470589,9.57678431 24.1126602,7.23969972 Z M12.0563633,7.0298576 C12.0563633,9.0449737 13.4518679,10.7945135 16.1024306,10.7945135 C18.7527278,10.7945135 20.1484979,9.0449737 20.1484979,7.0298576 C20.1484979,5.01454409 18.7527278,3.2652017 16.1024306,3.2652017 C13.4518679,3.2652017 12.0563633,5.01454409 12.0563633,7.0298576 Z M15.3269216,7.23969972 C14.9322643,5.79831002 14.7207981,4.84661775 14.7207981,4.25880975 C14.7207981,3.71298334 14.9462691,3.46102803 15.2987792,3.46102803 C15.8767604,3.46102803 16.2432753,4.48273348 16.8777404,6.81981807 C17.2723314,8.26140517 17.483864,9.21309745 17.483864,9.80083964 C17.483864,10.3465345 17.2583929,10.5984898 16.9058828,10.5984898 C16.3279017,10.5984898 15.9613867,9.57678431 15.3269216,7.23969972 Z" id="path-5"></path>
    </defs>
    <g id="Page-1" stroke="none" stroke-width="1" fill="none" fill-rule="evenodd">
        <g id="Home" transform="translate(-252.000000, -2249.000000)">
            <g id="Group-3" transform="translate(252.000000, 2249.000000)">
                <g id="pinkroom-circle">
                    <mask id="mask-2" fill="white">
                        <use xlink:href="#path-1"></use>
                    </mask>
                    <use id="Mask" fill="#FAFAFA" xlink:href="#path-1"></use>
                    <g id="Group" mask="url(#mask-2)">
                        <g transform="translate(7.000000, 18.000000)">
                            <g id="Group-32">
                                <mask id="mask-4" fill="white">
                                    <use xlink:href="#path-3"></use>
                                </mask>
                                <g id="Clip-31"></g>
                                <polygon id="Fill-30" fill="#000000" mask="url(#mask-4)" points="-0.331890762 14.6906809 34.9917741 14.6906809 34.9917741 -0.327605782 -0.331890762 -0.327605782"></polygon>
                            </g>
                            <g id="Group-35" transform="translate(0.000000, 9.025027)">
                                <mask id="mask-6" fill="white">
                                    <use xlink:href="#path-5"></use>
                                </mask>
                                <g id="Clip-34"></g>
                                <polygon id="Fill-33" fill="#000000" mask="url(#mask-6)" points="-0.33186792 11.123457 43.3240295 11.123457 43.3240295 -0.324684469 -0.33186792 -0.324684469"></polygon>
                            </g>
                        </g>
                    </g>
                </g>
            </g>
        </g>
    </g>
</svg>
